<svg xmlns="http://www.w3.org/2000/svg" xmlns:svg="http://www.w3.org/2000/svg" id="Layer_1" width="123.62" height="40.018" x="0" y="0" version="1.1" viewBox="-237 286.5 123.62 40.018" xml:space="preserve"><defs id="defs366"><marker style="overflow:visible" id="Arrow1Lstart" orient="auto" refX="0" refY="0"><path style="fill:context-stroke;fill-rule:evenodd;stroke:context-stroke;stroke-width:1pt" id="path2511" d="M 0,0 5,-5 -12.5,0 5,5 Z" transform="matrix(0.8,0,0,0.8,10,0)"/></marker></defs><style id="style273" type="text/css">.st0{display:none}.st1{fill:#444}.st1,.st2{display:inline}.st3{fill:#444}</style><g id="Layer_1_1_" class="st0" transform="translate(-9.1035767,19.559967)"><path id="path275" d="m -519.1,676.3 c 2.7,0 4.4,-1.3 4.4,-3.5 0,-1.7 -1,-2.7 -3,-3.1 l -1.8,-0.4 c -1,-0.2 -1.5,-0.6 -1.5,-1.2 0,-0.7 0.7,-1.1 1.7,-1.1 0.8,0 1.6,0.3 2.2,0.9 0.5,0.4 0.8,0.7 1.2,0.7 0.5,0 0.9,-0.4 0.9,-0.9 0,-0.6 -0.4,-1.2 -1,-1.7 -0.8,-0.6 -2,-1 -3.4,-1 -2.6,0 -4.2,1.2 -4.2,3.3 0,1.6 1.1,2.7 3.2,3.1 l 1.7,0.3 c 0.9,0.2 1.4,0.6 1.4,1.3 0,0.8 -0.7,1.2 -1.8,1.2 -1.1,0 -1.9,-0.3 -2.7,-1.2 -0.5,-0.5 -0.8,-0.7 -1.2,-0.7 -0.6,0 -1,0.4 -1,1 0,0.5 0.3,1.1 0.8,1.6 1,0.9 2.5,1.4 4.1,1.4 z" class="st1"/><path id="path277" d="m -510.2,676.2 c 0.7,0 1.2,-0.5 1.2,-1.2 v -8.7 c 0,-0.7 -0.5,-1.2 -1.2,-1.2 -0.7,0 -1.2,0.5 -1.2,1.2 v 8.7 c 0,0.7 0.5,1.2 1.2,1.2 z m -1.5,-13.9 c 0,0.8 0.6,1.5 1.5,1.5 0.9,0 1.5,-0.6 1.5,-1.5 0,-0.8 -0.6,-1.5 -1.5,-1.5 -0.8,0 -1.5,0.6 -1.5,1.5 z" class="st1"/><path id="path279" d="m -500.7,678.6 c 3.6,0 5.6,-1.2 5.6,-3.2 0,-1.7 -1.2,-2.6 -3.5,-2.6 h -3.4 c -0.6,0 -1,-0.3 -1,-0.7 0,-0.2 0.1,-0.4 0.3,-0.6 0.6,0.2 1.3,0.3 2.2,0.3 2.8,0 4.6,-1.3 4.6,-3.4 0,-0.6 -0.1,-1.1 -0.4,-1.6 l 0.8,-0.7 c 0.3,-0.3 0.5,-0.6 0.5,-1 0,-0.4 -0.4,-0.9 -0.9,-0.9 -0.3,0 -0.6,0.1 -0.9,0.4 l -1,0.8 c -0.7,-0.3 -1.6,-0.5 -2.7,-0.5 -2.8,0 -4.6,1.3 -4.6,3.4 0,0.9 0.4,1.7 1,2.3 -0.8,0.5 -1.1,1 -1.1,1.8 0,0.7 0.3,1.2 0.8,1.6 -0.8,0.4 -1.3,1 -1.3,1.9 0,1.8 1.8,2.7 5,2.7 z m -2.6,-3 c 0,-0.4 0.2,-0.7 0.5,-1 0.1,0 0.3,0 0.4,0 h 3.3 c 1,0 1.5,0.3 1.5,0.9 0,0.8 -1,1.2 -3,1.2 -1.8,0.1 -2.7,-0.3 -2.7,-1.1 z m 0.6,-7.2 c 0,-1 0.8,-1.7 2.2,-1.7 1.3,0 2.2,0.6 2.2,1.7 0,1 -0.8,1.7 -2.2,1.7 -1.3,-0.1 -2.2,-0.7 -2.2,-1.7 z" class="st1"/><path id="path281" d="m -487.7,676.3 c 2.7,0 4.4,-1.3 4.4,-3.5 0,-1.7 -1,-2.7 -3,-3.1 l -1.8,-0.4 c -1,-0.2 -1.5,-0.6 -1.5,-1.2 0,-0.7 0.7,-1.1 1.7,-1.1 0.8,0 1.6,0.3 2.2,0.9 0.5,0.4 0.8,0.7 1.2,0.7 0.5,0 0.9,-0.4 0.9,-0.9 0,-0.6 -0.4,-1.2 -1,-1.7 -0.8,-0.6 -2,-1 -3.4,-1 -2.6,0 -4.2,1.2 -4.2,3.3 0,1.6 1.1,2.7 3.2,3.1 l 1.7,0.3 c 0.9,0.2 1.4,0.6 1.4,1.3 0,0.8 -0.7,1.2 -1.8,1.2 -1.1,0 -1.9,-0.3 -2.7,-1.2 -0.5,-0.5 -0.8,-0.7 -1.2,-0.7 -0.6,0 -1,0.4 -1,1 0,0.5 0.3,1.1 0.8,1.6 1,0.9 2.4,1.4 4.1,1.4 z" class="st1"/><path id="path283" d="m -475.8,676.3 c 1.1,0 2.1,-0.4 2.7,-1 0.4,-0.4 0.6,-0.8 0.6,-1.2 0,-0.6 -0.4,-1 -0.9,-1 -0.4,0 -0.6,0.2 -0.9,0.4 -0.4,0.3 -0.8,0.5 -1.2,0.5 -0.7,0 -1.2,-0.5 -1.2,-1.4 v -5.2 h 2.8 c 0.6,0 1.1,-0.4 1.1,-1.1 0,-0.6 -0.5,-1.1 -1.1,-1.1 h -2.8 v -1.8 c 0,-0.7 -0.5,-1.2 -1.2,-1.2 -0.7,0 -1.2,0.5 -1.2,1.2 v 1.8 h -1.5 c -0.7,0 -1.1,0.4 -1.1,1.1 0,0.6 0.5,1.1 1.1,1.1 h 1.5 v 5.5 c 0,2.1 1.4,3.4 3.3,3.4 z" class="st1"/><path id="path285" d="m -465,676.3 c 3.3,0 5.7,-2.3 5.7,-5.7 0,-3.4 -2.4,-5.7 -5.7,-5.7 -3.3,0 -5.7,2.3 -5.7,5.7 0,3.4 2.4,5.7 5.7,5.7 z m -3.3,-5.7 c 0,-2.1 1.4,-3.5 3.3,-3.5 1.9,0 3.3,1.4 3.3,3.5 0,2.1 -1.4,3.5 -3.3,3.5 -1.9,0 -3.3,-1.4 -3.3,-3.5 z" class="st1"/><path id="path287" d="m -453.9,670.3 c 0,-1.9 0.9,-3 2,-3 0.5,0 1,0.3 1.2,0.6 0.2,0.3 0.6,0.5 1,0.5 0.8,0 1.2,-0.5 1.2,-1.3 0,-0.5 -0.2,-1 -0.6,-1.4 -0.4,-0.4 -1.1,-0.7 -2,-0.7 -1.2,0 -2.2,0.5 -2.8,1.4 v -0.1 c 0,-0.7 -0.5,-1.2 -1.2,-1.2 -0.7,0 -1.2,0.5 -1.2,1.2 v 8.7 c 0,0.7 0.5,1.2 1.2,1.2 0.7,0 1.2,-0.5 1.2,-1.2 0,0 0,-4.7 0,-4.7 z" class="st1"/><path id="path289" d="m -441.1,676.3 c 1.7,0 3.4,-0.6 4.3,-1.9 0.2,-0.3 0.3,-0.6 0.3,-0.9 0,-0.6 -0.3,-1 -0.9,-1 -0.4,0 -0.7,0.2 -1.1,0.5 -0.6,0.8 -1.4,1.1 -2.5,1.1 -1.9,0 -3.3,-1.1 -3.4,-2.7 h 7 c 0.8,0 1.3,-0.4 1.3,-1.3 0,-2.9 -2,-5 -5.2,-5 -3.2,0 -5.4,2.3 -5.4,5.6 -0.2,3.4 2.1,5.6 5.6,5.6 z m -3.4,-6.9 c 0.2,-1.6 1.3,-2.5 2.9,-2.5 1.7,0 2.8,0.9 2.9,2.5 z" class="st1"/><path id="path291" d="m -546,670.6 c 0,-1.9 0,-3.8 0,-5.7 0,-0.6 0.1,-1.2 0.3,-1.8 0.4,-1.2 1.2,-2.1 2.4,-2.5 1.4,-0.5 2.9,-0.4 4.3,0.3 0.4,0.2 0.7,0.4 0.9,0.7 0.3,0.4 0.3,1 -0.1,1.4 -0.2,0.2 -0.6,0.2 -0.9,0.1 -0.5,-0.2 -0.9,-0.5 -1.4,-0.6 -0.5,-0.2 -1.1,-0.2 -1.7,0 -0.9,0.3 -1.3,1 -1.5,1.9 0,0.2 0,0.5 0,0.7 0,3.9 0,7.7 0,11.6 0,0.8 -0.1,1.6 -0.4,2.3 -0.6,1.2 -1.5,1.9 -2.8,2.2 -1.1,0.2 -2.2,0.2 -3.2,-0.2 -0.5,-0.2 -1,-0.5 -1.4,-0.9 -0.3,-0.4 -0.3,-0.9 0,-1.2 0.2,-0.3 0.6,-0.4 0.9,-0.3 0.3,0.1 0.5,0.3 0.8,0.4 0.8,0.4 1.6,0.5 2.5,0.3 0.8,-0.2 1.2,-0.8 1.4,-1.6 0.1,-0.3 0.1,-0.6 0.1,-0.9 -0.2,-2.2 -0.2,-4.2 -0.2,-6.2 z" class="st1"/><circle id="circle293" cx="-537.1" cy="670.5" r="2" class="st1"/><circle id="circle295" cx="-552.5" cy="670.5" r="2" class="st1"/></g><g id="Cosign" class="st0" transform="translate(-9.1035767,19.559967)"><g id="g318" class="st2"><path id="path298" d="m -514.3,671.9 c -0.5,0 -0.8,0.2 -1.1,0.7 -0.5,0.8 -1.3,1.5 -2.6,1.5 -1.9,0 -3.2,-1.4 -3.2,-3.5 0,-2.1 1.3,-3.5 3.2,-3.5 1.1,0 2,0.6 2.5,1.4 0.4,0.5 0.7,0.7 1.2,0.7 0.6,0 1,-0.4 1,-1 0,-0.5 -0.4,-1.3 -0.9,-1.9 -0.8,-0.8 -2.1,-1.4 -3.9,-1.4 -3.2,0 -5.6,2.4 -5.6,5.7 0,3.3 2.4,5.7 5.6,5.7 1.7,0 3.1,-0.6 3.9,-1.5 0.5,-0.6 0.9,-1.3 0.9,-1.8 0.1,-0.6 -0.4,-1.1 -1,-1.1 z" class="st3"/><path id="path300" d="m -504.7,665 c -3.3,0 -5.7,2.3 -5.7,5.7 0,3.4 2.4,5.7 5.7,5.7 3.3,0 5.7,-2.3 5.7,-5.7 0.1,-3.4 -2.3,-5.7 -5.7,-5.7 z m 0,9.1 c -1.9,0 -3.3,-1.4 -3.3,-3.5 0,-2.1 1.4,-3.5 3.3,-3.5 1.9,0 3.3,1.4 3.3,3.5 0,2.1 -1.3,3.5 -3.3,3.5 z" class="st3"/><path id="path302" d="m -489.8,669.7 -1.8,-0.4 c -1,-0.2 -1.5,-0.6 -1.5,-1.2 0,-0.7 0.7,-1.1 1.7,-1.1 0.8,0 1.6,0.3 2.2,0.9 0.5,0.4 0.8,0.7 1.2,0.7 0.5,0 0.9,-0.4 0.9,-0.9 0,-0.6 -0.4,-1.2 -1,-1.7 -0.8,-0.6 -2,-1 -3.4,-1 -2.6,0 -4.2,1.2 -4.2,3.3 0,1.6 1.1,2.7 3.2,3.1 l 1.7,0.3 c 0.9,0.2 1.4,0.6 1.4,1.3 0,0.8 -0.7,1.2 -1.8,1.2 -1.1,0 -1.9,-0.3 -2.7,-1.2 -0.5,-0.5 -0.8,-0.7 -1.2,-0.7 -0.6,0 -1,0.4 -1,1 0,0.5 0.3,1.1 0.8,1.6 0.8,0.8 2.2,1.3 3.9,1.3 2.7,0 4.4,-1.3 4.4,-3.5 0.2,-1.5 -0.8,-2.6 -2.8,-3 z" class="st3"/><path id="path304" d="m -481.5,660.8 c -0.9,0 -1.5,0.6 -1.5,1.5 0,0.8 0.6,1.5 1.5,1.5 0.9,0 1.5,-0.6 1.5,-1.5 0,-0.8 -0.6,-1.5 -1.5,-1.5 z" class="st3"/><path id="path306" d="m -481.5,665.1 c -0.7,0 -1.2,0.5 -1.2,1.2 v 8.7 c 0,0.7 0.5,1.2 1.2,1.2 0.7,0 1.2,-0.5 1.2,-1.2 v -8.7 c 0,-0.7 -0.5,-1.2 -1.2,-1.2 z" class="st3"/><path id="path308" d="m -465.5,665.2 c 0,-0.4 -0.4,-0.9 -0.9,-0.9 -0.3,0 -0.6,0.1 -0.9,0.4 l -1,0.8 c -0.7,-0.3 -1.6,-0.5 -2.7,-0.5 -2.8,0 -4.6,1.3 -4.6,3.4 0,0.9 0.4,1.7 1,2.3 -0.8,0.5 -1.1,1 -1.1,1.8 0,0.7 0.3,1.2 0.8,1.6 -0.8,0.4 -1.3,1 -1.3,1.9 0,1.7 1.8,2.6 5,2.6 3.6,0 5.6,-1.2 5.6,-3.2 0,-1.7 -1.2,-2.6 -3.5,-2.6 h -3.5 c -0.6,0 -1,-0.3 -1,-0.7 0,-0.2 0.1,-0.4 0.3,-0.6 0.6,0.2 1.3,0.3 2.2,0.3 2.8,0 4.6,-1.3 4.6,-3.4 0,-0.6 -0.1,-1.1 -0.4,-1.6 l 0.8,-0.7 c 0.4,-0.2 0.6,-0.6 0.6,-0.9 z m -7.8,9.5 c 0.1,0 0.3,0 0.4,0 h 3.3 c 1,0 1.5,0.3 1.5,0.9 0,0.8 -1,1.2 -3,1.2 -1.9,0 -2.8,-0.4 -2.8,-1.2 0.1,-0.3 0.3,-0.7 0.6,-0.9 z m 2.3,-4.6 c -1.3,0 -2.2,-0.6 -2.2,-1.7 0,-1 0.8,-1.7 2.2,-1.7 1.3,0 2.2,0.6 2.2,1.7 0,1 -0.8,1.7 -2.2,1.7 z" class="st3"/><path id="path310" d="m -455.9,665 c -1.5,0 -2.7,0.5 -3.3,1.5 v -0.2 c 0,-0.7 -0.5,-1.2 -1.2,-1.2 -0.7,0 -1.2,0.5 -1.2,1.2 v 8.7 c 0,0.7 0.5,1.2 1.2,1.2 0.7,0 1.2,-0.5 1.2,-1.2 v -4.8 c 0,-1.8 1.1,-3 2.8,-3 1.6,0 2.5,0.9 2.5,2.8 v 5 c 0,0.7 0.5,1.2 1.2,1.2 0.7,0 1.2,-0.5 1.2,-1.2 v -5.4 c 0,-2.9 -1.8,-4.6 -4.4,-4.6 z" class="st3"/><path id="path312" d="m -541.6,676.1 c -2.8,-1.5 -4.9,-0.8 -6.8,-0.3 -0.7,0.2 -1.3,0.4 -2,0.5 -0.6,0.1 -1.4,-0.1 -2.3,-0.4 -0.6,-0.2 -1.2,0.1 -1.4,0.6 -0.2,0.6 0.1,1.2 0.6,1.4 1,0.4 1.9,0.6 2.7,0.6 0.2,0 0.4,0 0.6,0 0.9,-0.1 1.6,-0.3 2.4,-0.6 1.7,-0.5 3.1,-1 5.2,0.1 0.5,0.3 1.2,0.1 1.5,-0.5 0.2,-0.5 0,-1.2 -0.5,-1.4 z" class="st3"/><path id="path314" d="m -536.4,675.3 -1.6,1.1 c -0.3,0.2 -0.3,0.5 0,0.7 l 1.8,0.9 c 0.3,0.2 0.6,0 0.6,-0.4 l -0.2,-2 c 0,-0.4 -0.3,-0.5 -0.6,-0.3 z" class="st3"/><path id="path316" d="m -538,672.3 -5.8,-8 c -0.3,-0.4 -0.9,-0.5 -1.3,-0.2 l -0.6,0.4 c -0.4,0.3 -0.5,0.9 -0.2,1.3 l 5.8,8 c 0.3,0.4 0.9,0.5 1.3,0.2 l 0.6,-0.4 c 0.4,-0.3 0.5,-0.9 0.2,-1.3 z" class="st3"/></g></g><g id="Rekor" class="st0" transform="translate(-9.1035767,19.559967)"><g id="g337" class="st2"><path id="path321" d="m -518.5,665 c -1.2,0 -2.2,0.5 -2.8,1.4 v -0.1 c 0,-0.7 -0.5,-1.2 -1.2,-1.2 -0.7,0 -1.2,0.5 -1.2,1.2 v 8.7 c 0,0.7 0.5,1.2 1.2,1.2 0.7,0 1.2,-0.5 1.2,-1.2 v -4.7 c 0,-1.9 0.9,-3 2,-3 0.5,0 1,0.3 1.2,0.6 0.2,0.3 0.6,0.5 1,0.5 0.8,0 1.2,-0.5 1.2,-1.3 0,-0.5 -0.2,-1 -0.6,-1.4 -0.4,-0.4 -1.1,-0.7 -2,-0.7 z" class="st3"/><path id="path323" d="m -502.8,670.1 c 0,-2.9 -2,-5 -5.2,-5 -3.2,0 -5.4,2.3 -5.4,5.6 0,3.5 2.3,5.7 5.8,5.7 1.7,0 3.4,-0.6 4.3,-1.9 0.2,-0.3 0.3,-0.6 0.3,-0.9 0,-0.6 -0.3,-1 -0.9,-1 -0.4,0 -0.7,0.2 -1.1,0.5 -0.6,0.8 -1.4,1.1 -2.5,1.1 -1.9,0 -3.3,-1.1 -3.4,-2.7 h 7 c 0.6,-0.1 1.1,-0.5 1.1,-1.4 z m -8.3,-0.6 c 0.2,-1.6 1.3,-2.5 2.9,-2.5 1.7,0 2.8,0.9 2.9,2.5 z" class="st3"/><path id="path325" d="m -492.7,669.8 3,-2.6 c 0.5,-0.4 0.6,-0.8 0.6,-1.1 0,-0.6 -0.5,-1 -1.1,-1 -0.4,0 -0.8,0.1 -1.4,0.7 l -5.2,4.5 V 663 c 0,-0.7 -0.5,-1.2 -1.2,-1.2 -0.7,0 -1.2,0.5 -1.2,1.2 v 12 c 0,0.7 0.5,1.2 1.2,1.2 0.7,0 1.2,-0.5 1.2,-1.2 v -1.8 l 2.1,-1.8 3.4,4.3 c 0.3,0.5 0.8,0.6 1.1,0.6 0.7,0 1.2,-0.5 1.2,-1 0,-0.3 0,-0.5 -0.5,-1.1 z" class="st3"/><path id="path327" d="m -480.3,665 c -3.3,0 -5.7,2.3 -5.7,5.7 0,3.4 2.4,5.7 5.7,5.7 3.3,0 5.7,-2.3 5.7,-5.7 0,-3.4 -2.4,-5.7 -5.7,-5.7 z m 0,9.2 c -1.9,0 -3.3,-1.4 -3.3,-3.5 0,-2.1 1.4,-3.5 3.3,-3.5 1.9,0 3.3,1.4 3.3,3.5 0,2.1 -1.4,3.5 -3.3,3.5 z" class="st3"/><path id="path329" d="m -463.5,665.7 c -0.4,-0.4 -1.1,-0.7 -2,-0.7 -1.2,0 -2.2,0.5 -2.8,1.4 v -0.1 c 0,-0.7 -0.5,-1.2 -1.2,-1.2 -0.7,0 -1.2,0.5 -1.2,1.2 v 8.7 c 0,0.7 0.5,1.2 1.2,1.2 0.7,0 1.2,-0.5 1.2,-1.2 v -4.7 c 0,-1.9 0.9,-3 2,-3 0.5,0 1,0.3 1.2,0.6 0.2,0.3 0.6,0.5 1,0.5 0.8,0 1.2,-0.5 1.2,-1.3 0,-0.5 -0.2,-1 -0.6,-1.4 z" class="st3"/><path id="path331" d="m -537.6,677.3 h -13.3 c -0.4,0 -0.8,-0.3 -0.8,-0.8 v -11 c 0.2,0.1 0.5,0.1 0.8,0.1 h 13.3 c 0.5,0 0.8,-0.4 0.8,-0.8 0,-0.5 -0.4,-0.8 -0.8,-0.8 h -2.6 v -2.3 c 0,-0.5 -0.4,-0.8 -0.8,-0.8 h -9.9 c -1.3,0 -2.4,1.1 -2.4,2.4 v 13.4 c 0,1.3 1.1,2.4 2.4,2.4 h 13.3 c 0.5,0 0.8,-0.4 0.8,-0.8 0,-0.6 -0.4,-1 -0.8,-1 z m -13.3,-14.9 h 9.1 v 1.5 h -9.1 c -0.4,0 -0.8,-0.3 -0.8,-0.8 0,-0.3 0.4,-0.7 0.8,-0.7 z" class="st3"/><circle id="circle333" cx="-538.2" cy="669" r="1.4" class="st3"/><circle id="circle335" cx="-538.2" cy="673.8" r="1.4" class="st3"/></g></g><rect style="fill:#444;fill-opacity:1;stroke-width:1.42306;stroke-miterlimit:4;stroke-dasharray:none" id="rect3579" width="123.62" height="40.018" x="-237" y="286.5" ry="12.764"/><style id="style1104" type="text/css">.st0{display:none}.st1{display:inline}.st1,.st2{fill:#444}.st3{display:inline}</style><g id="g1246" transform="translate(9.1700191,10.147709)" style="fill:#ffead7;fill-opacity:1"><g id="Layer_1_1_-6" class="st0" style="fill:#ffead7;fill-opacity:1"><path id="path1106" d="m -519.1,676.3 c 2.7,0 4.4,-1.3 4.4,-3.5 0,-1.7 -1,-2.7 -3,-3.1 l -1.8,-0.4 c -1,-0.2 -1.5,-0.6 -1.5,-1.2 0,-0.7 0.7,-1.1 1.7,-1.1 0.8,0 1.6,0.3 2.2,0.9 0.5,0.4 0.8,0.7 1.2,0.7 0.5,0 0.9,-0.4 0.9,-0.9 0,-0.6 -0.4,-1.2 -1,-1.7 -0.8,-0.6 -2,-1 -3.4,-1 -2.6,0 -4.2,1.2 -4.2,3.3 0,1.6 1.1,2.7 3.2,3.1 l 1.7,0.3 c 0.9,0.2 1.4,0.6 1.4,1.3 0,0.8 -0.7,1.2 -1.8,1.2 -1.1,0 -1.9,-0.3 -2.7,-1.2 -0.5,-0.5 -0.8,-0.7 -1.2,-0.7 -0.6,0 -1,0.4 -1,1 0,0.5 0.3,1.1 0.8,1.6 1,0.9 2.5,1.4 4.1,1.4 z" class="st1" style="fill:#ffead7;fill-opacity:1"/><path id="path1108" d="m -510.2,676.2 c 0.7,0 1.2,-0.5 1.2,-1.2 v -8.7 c 0,-0.7 -0.5,-1.2 -1.2,-1.2 -0.7,0 -1.2,0.5 -1.2,1.2 v 8.7 c 0,0.7 0.5,1.2 1.2,1.2 z m -1.5,-13.9 c 0,0.8 0.6,1.5 1.5,1.5 0.9,0 1.5,-0.6 1.5,-1.5 0,-0.8 -0.6,-1.5 -1.5,-1.5 -0.8,0 -1.5,0.6 -1.5,1.5 z" class="st1" style="fill:#ffead7;fill-opacity:1"/><path id="path1110" d="m -500.7,678.6 c 3.6,0 5.6,-1.2 5.6,-3.2 0,-1.7 -1.2,-2.6 -3.5,-2.6 h -3.4 c -0.6,0 -1,-0.3 -1,-0.7 0,-0.2 0.1,-0.4 0.3,-0.6 0.6,0.2 1.3,0.3 2.2,0.3 2.8,0 4.6,-1.3 4.6,-3.4 0,-0.6 -0.1,-1.1 -0.4,-1.6 l 0.8,-0.7 c 0.3,-0.3 0.5,-0.6 0.5,-1 0,-0.4 -0.4,-0.9 -0.9,-0.9 -0.3,0 -0.6,0.1 -0.9,0.4 l -1,0.8 c -0.7,-0.3 -1.6,-0.5 -2.7,-0.5 -2.8,0 -4.6,1.3 -4.6,3.4 0,0.9 0.4,1.7 1,2.3 -0.8,0.5 -1.1,1 -1.1,1.8 0,0.7 0.3,1.2 0.8,1.6 -0.8,0.4 -1.3,1 -1.3,1.9 0,1.8 1.8,2.7 5,2.7 z m -2.6,-3 c 0,-0.4 0.2,-0.7 0.5,-1 0.1,0 0.3,0 0.4,0 h 3.3 c 1,0 1.5,0.3 1.5,0.9 0,0.8 -1,1.2 -3,1.2 -1.8,0.1 -2.7,-0.3 -2.7,-1.1 z m 0.6,-7.2 c 0,-1 0.8,-1.7 2.2,-1.7 1.3,0 2.2,0.6 2.2,1.7 0,1 -0.8,1.7 -2.2,1.7 -1.3,-0.1 -2.2,-0.7 -2.2,-1.7 z" class="st1" style="fill:#ffead7;fill-opacity:1"/><path id="path1112" d="m -487.7,676.3 c 2.7,0 4.4,-1.3 4.4,-3.5 0,-1.7 -1,-2.7 -3,-3.1 l -1.8,-0.4 c -1,-0.2 -1.5,-0.6 -1.5,-1.2 0,-0.7 0.7,-1.1 1.7,-1.1 0.8,0 1.6,0.3 2.2,0.9 0.5,0.4 0.8,0.7 1.2,0.7 0.5,0 0.9,-0.4 0.9,-0.9 0,-0.6 -0.4,-1.2 -1,-1.7 -0.8,-0.6 -2,-1 -3.4,-1 -2.6,0 -4.2,1.2 -4.2,3.3 0,1.6 1.1,2.7 3.2,3.1 l 1.7,0.3 c 0.9,0.2 1.4,0.6 1.4,1.3 0,0.8 -0.7,1.2 -1.8,1.2 -1.1,0 -1.9,-0.3 -2.7,-1.2 -0.5,-0.5 -0.8,-0.7 -1.2,-0.7 -0.6,0 -1,0.4 -1,1 0,0.5 0.3,1.1 0.8,1.6 1,0.9 2.4,1.4 4.1,1.4 z" class="st1" style="fill:#ffead7;fill-opacity:1"/><path id="path1114" d="m -475.8,676.3 c 1.1,0 2.1,-0.4 2.7,-1 0.4,-0.4 0.6,-0.8 0.6,-1.2 0,-0.6 -0.4,-1 -0.9,-1 -0.4,0 -0.6,0.2 -0.9,0.4 -0.4,0.3 -0.8,0.5 -1.2,0.5 -0.7,0 -1.2,-0.5 -1.2,-1.4 v -5.2 h 2.8 c 0.6,0 1.1,-0.4 1.1,-1.1 0,-0.6 -0.5,-1.1 -1.1,-1.1 h -2.8 v -1.8 c 0,-0.7 -0.5,-1.2 -1.2,-1.2 -0.7,0 -1.2,0.5 -1.2,1.2 v 1.8 h -1.5 c -0.7,0 -1.1,0.4 -1.1,1.1 0,0.6 0.5,1.1 1.1,1.1 h 1.5 v 5.5 c 0,2.1 1.4,3.4 3.3,3.4 z" class="st1" style="fill:#ffead7;fill-opacity:1"/><path id="path1116" d="m -465,676.3 c 3.3,0 5.7,-2.3 5.7,-5.7 0,-3.4 -2.4,-5.7 -5.7,-5.7 -3.3,0 -5.7,2.3 -5.7,5.7 0,3.4 2.4,5.7 5.7,5.7 z m -3.3,-5.7 c 0,-2.1 1.4,-3.5 3.3,-3.5 1.9,0 3.3,1.4 3.3,3.5 0,2.1 -1.4,3.5 -3.3,3.5 -1.9,0 -3.3,-1.4 -3.3,-3.5 z" class="st1" style="fill:#ffead7;fill-opacity:1"/><path id="path1118" d="m -453.9,670.3 c 0,-1.9 0.9,-3 2,-3 0.5,0 1,0.3 1.2,0.6 0.2,0.3 0.6,0.5 1,0.5 0.8,0 1.2,-0.5 1.2,-1.3 0,-0.5 -0.2,-1 -0.6,-1.4 -0.4,-0.4 -1.1,-0.7 -2,-0.7 -1.2,0 -2.2,0.5 -2.8,1.4 v -0.1 c 0,-0.7 -0.5,-1.2 -1.2,-1.2 -0.7,0 -1.2,0.5 -1.2,1.2 v 8.7 c 0,0.7 0.5,1.2 1.2,1.2 0.7,0 1.2,-0.5 1.2,-1.2 0,0 0,-4.7 0,-4.7 z" class="st1" style="fill:#ffead7;fill-opacity:1"/><path id="path1120" d="m -441.1,676.3 c 1.7,0 3.4,-0.6 4.3,-1.9 0.2,-0.3 0.3,-0.6 0.3,-0.9 0,-0.6 -0.3,-1 -0.9,-1 -0.4,0 -0.7,0.2 -1.1,0.5 -0.6,0.8 -1.4,1.1 -2.5,1.1 -1.9,0 -3.3,-1.1 -3.4,-2.7 h 7 c 0.8,0 1.3,-0.4 1.3,-1.3 0,-2.9 -2,-5 -5.2,-5 -3.2,0 -5.4,2.3 -5.4,5.6 -0.2,3.4 2.1,5.6 5.6,5.6 z m -3.4,-6.9 c 0.2,-1.6 1.3,-2.5 2.9,-2.5 1.7,0 2.8,0.9 2.9,2.5 z" class="st1" style="fill:#ffead7;fill-opacity:1"/><path id="path1122" d="m -546,670.6 c 0,-1.9 0,-3.8 0,-5.7 0,-0.6 0.1,-1.2 0.3,-1.8 0.4,-1.2 1.2,-2.1 2.4,-2.5 1.4,-0.5 2.9,-0.4 4.3,0.3 0.4,0.2 0.7,0.4 0.9,0.7 0.3,0.4 0.3,1 -0.1,1.4 -0.2,0.2 -0.6,0.2 -0.9,0.1 -0.5,-0.2 -0.9,-0.5 -1.4,-0.6 -0.5,-0.2 -1.1,-0.2 -1.7,0 -0.9,0.3 -1.3,1 -1.5,1.9 0,0.2 0,0.5 0,0.7 0,3.9 0,7.7 0,11.6 0,0.8 -0.1,1.6 -0.4,2.3 -0.6,1.2 -1.5,1.9 -2.8,2.2 -1.1,0.2 -2.2,0.2 -3.2,-0.2 -0.5,-0.2 -1,-0.5 -1.4,-0.9 -0.3,-0.4 -0.3,-0.9 0,-1.2 0.2,-0.3 0.6,-0.4 0.9,-0.3 0.3,0.1 0.5,0.3 0.8,0.4 0.8,0.4 1.6,0.5 2.5,0.3 0.8,-0.2 1.2,-0.8 1.4,-1.6 0.1,-0.3 0.1,-0.6 0.1,-0.9 -0.2,-2.2 -0.2,-4.2 -0.2,-6.2 z" class="st1" style="fill:#ffead7;fill-opacity:1"/><circle id="circle1124" cx="-537.1" cy="670.5" r="2" class="st1" style="fill:#ffead7;fill-opacity:1"/><circle id="circle1126" cx="-552.5" cy="670.5" r="2" class="st1" style="fill:#ffead7;fill-opacity:1"/></g><g id="Cosign-7" style="fill:#ffead7;fill-opacity:1"><g id="g1149" style="fill:#ffead7;fill-opacity:1"><path id="path1129" d="m -197.1,297.6 c -0.5,0 -0.8,0.2 -1.1,0.7 -0.5,0.8 -1.3,1.5 -2.6,1.5 -1.9,0 -3.2,-1.4 -3.2,-3.5 0,-2.1 1.3,-3.5 3.2,-3.5 1.1,0 2,0.6 2.5,1.4 0.4,0.5 0.7,0.7 1.2,0.7 0.6,0 1,-0.4 1,-1 0,-0.5 -0.4,-1.3 -0.9,-1.9 -0.8,-0.8 -2.1,-1.4 -3.9,-1.4 -3.2,0 -5.6,2.4 -5.6,5.7 0,3.3 2.4,5.7 5.6,5.7 1.7,0 3.1,-0.6 3.9,-1.5 0.5,-0.6 0.9,-1.3 0.9,-1.8 0.1,-0.6 -0.4,-1.1 -1,-1.1 z" class="st2" style="fill:#ffead7;fill-opacity:1"/><path id="path1131" d="m -187.5,290.7 c -3.3,0 -5.7,2.3 -5.7,5.7 0,3.4 2.4,5.7 5.7,5.7 3.3,0 5.7,-2.3 5.7,-5.7 0.1,-3.4 -2.3,-5.7 -5.7,-5.7 z m 0,9.1 c -1.9,0 -3.3,-1.4 -3.3,-3.5 0,-2.1 1.4,-3.5 3.3,-3.5 1.9,0 3.3,1.4 3.3,3.5 0,2.1 -1.3,3.5 -3.3,3.5 z" class="st2" style="fill:#ffead7;fill-opacity:1"/><path id="path1133" d="m -172.6,295.4 -1.8,-0.4 c -1,-0.2 -1.5,-0.6 -1.5,-1.2 0,-0.7 0.7,-1.1 1.7,-1.1 0.8,0 1.6,0.3 2.2,0.9 0.5,0.4 0.8,0.7 1.2,0.7 0.5,0 0.9,-0.4 0.9,-0.9 0,-0.6 -0.4,-1.2 -1,-1.7 -0.8,-0.6 -2,-1 -3.4,-1 -2.6,0 -4.2,1.2 -4.2,3.3 0,1.6 1.1,2.7 3.2,3.1 l 1.7,0.3 c 0.9,0.2 1.4,0.6 1.4,1.3 0,0.8 -0.7,1.2 -1.8,1.2 -1.1,0 -1.9,-0.3 -2.7,-1.2 -0.5,-0.5 -0.8,-0.7 -1.2,-0.7 -0.6,0 -1,0.4 -1,1 0,0.5 0.3,1.1 0.8,1.6 0.8,0.8 2.2,1.3 3.9,1.3 2.7,0 4.4,-1.3 4.4,-3.5 0.2,-1.5 -0.8,-2.6 -2.8,-3 z" class="st2" style="fill:#ffead7;fill-opacity:1"/><path id="path1135" d="m -164.3,286.5 c -0.9,0 -1.5,0.6 -1.5,1.5 0,0.8 0.6,1.5 1.5,1.5 0.9,0 1.5,-0.6 1.5,-1.5 0,-0.8 -0.6,-1.5 -1.5,-1.5 z" class="st2" style="fill:#ffead7;fill-opacity:1"/><path id="path1137" d="m -164.3,290.8 c -0.7,0 -1.2,0.5 -1.2,1.2 v 8.7 c 0,0.7 0.5,1.2 1.2,1.2 0.7,0 1.2,-0.5 1.2,-1.2 V 292 c 0,-0.7 -0.5,-1.2 -1.2,-1.2 z" class="st2" style="fill:#ffead7;fill-opacity:1"/><path id="path1139" d="m -148.3,290.9 c 0,-0.4 -0.4,-0.9 -0.9,-0.9 -0.3,0 -0.6,0.1 -0.9,0.4 l -1,0.8 c -0.7,-0.3 -1.6,-0.5 -2.7,-0.5 -2.8,0 -4.6,1.3 -4.6,3.4 0,0.9 0.4,1.7 1,2.3 -0.8,0.5 -1.1,1 -1.1,1.8 0,0.7 0.3,1.2 0.8,1.6 -0.8,0.4 -1.3,1 -1.3,1.9 0,1.7 1.8,2.6 5,2.6 3.6,0 5.6,-1.2 5.6,-3.2 0,-1.7 -1.2,-2.6 -3.5,-2.6 h -3.5 c -0.6,0 -1,-0.3 -1,-0.7 0,-0.2 0.1,-0.4 0.3,-0.6 0.6,0.2 1.3,0.3 2.2,0.3 2.8,0 4.6,-1.3 4.6,-3.4 0,-0.6 -0.1,-1.1 -0.4,-1.6 l 0.8,-0.7 c 0.4,-0.2 0.6,-0.6 0.6,-0.9 z m -7.8,9.5 c 0.1,0 0.3,0 0.4,0 h 3.3 c 1,0 1.5,0.3 1.5,0.9 0,0.8 -1,1.2 -3,1.2 -1.9,0 -2.8,-0.4 -2.8,-1.2 0.1,-0.3 0.3,-0.7 0.6,-0.9 z m 2.3,-4.6 c -1.3,0 -2.2,-0.6 -2.2,-1.7 0,-1 0.8,-1.7 2.2,-1.7 1.3,0 2.2,0.6 2.2,1.7 0,1 -0.8,1.7 -2.2,1.7 z" class="st2" style="fill:#ffead7;fill-opacity:1"/><path id="path1141" d="m -138.7,290.7 c -1.5,0 -2.7,0.5 -3.3,1.5 V 292 c 0,-0.7 -0.5,-1.2 -1.2,-1.2 -0.7,0 -1.2,0.5 -1.2,1.2 v 8.7 c 0,0.7 0.5,1.2 1.2,1.2 0.7,0 1.2,-0.5 1.2,-1.2 v -4.8 c 0,-1.8 1.1,-3 2.8,-3 1.6,0 2.5,0.9 2.5,2.8 v 5 c 0,0.7 0.5,1.2 1.2,1.2 0.7,0 1.2,-0.5 1.2,-1.2 v -5.4 c 0,-2.9 -1.8,-4.6 -4.4,-4.6 z" class="st2" style="fill:#ffead7;fill-opacity:1"/><path id="path1143" d="m -224.4,301.8 c -2.8,-1.5 -4.9,-0.8 -6.8,-0.3 -0.7,0.2 -1.3,0.4 -2,0.5 -0.6,0.1 -1.4,-0.1 -2.3,-0.4 -0.6,-0.2 -1.2,0.1 -1.4,0.6 -0.2,0.6 0.1,1.2 0.6,1.4 1,0.4 1.9,0.6 2.7,0.6 0.2,0 0.4,0 0.6,0 0.9,-0.1 1.6,-0.3 2.4,-0.6 1.7,-0.5 3.1,-1 5.2,0.1 0.5,0.3 1.2,0.1 1.5,-0.5 0.2,-0.5 0,-1.2 -0.5,-1.4 z" class="st2" style="fill:#ffead7;fill-opacity:1"/><path id="path1145" d="m -219.2,301 -1.6,1.1 c -0.3,0.2 -0.3,0.5 0,0.7 l 1.8,0.9 c 0.3,0.2 0.6,0 0.6,-0.4 l -0.2,-2 c 0,-0.4 -0.3,-0.5 -0.6,-0.3 z" class="st2" style="fill:#ffead7;fill-opacity:1"/><path id="path1147" d="m -220.8,298 -5.8,-8 c -0.3,-0.4 -0.9,-0.5 -1.3,-0.2 l -0.6,0.4 c -0.4,0.3 -0.5,0.9 -0.2,1.3 l 5.8,8 c 0.3,0.4 0.9,0.5 1.3,0.2 l 0.6,-0.4 c 0.4,-0.3 0.5,-0.9 0.2,-1.3 z" class="st2" style="fill:#ffead7;fill-opacity:1"/></g></g><g id="Rekor-5" class="st0" style="fill:#ffead7;fill-opacity:1"><g id="g1168" class="st3" style="fill:#ffead7;fill-opacity:1"><path id="path1152" d="m -518.5,665 c -1.2,0 -2.2,0.5 -2.8,1.4 v -0.1 c 0,-0.7 -0.5,-1.2 -1.2,-1.2 -0.7,0 -1.2,0.5 -1.2,1.2 v 8.7 c 0,0.7 0.5,1.2 1.2,1.2 0.7,0 1.2,-0.5 1.2,-1.2 v -4.7 c 0,-1.9 0.9,-3 2,-3 0.5,0 1,0.3 1.2,0.6 0.2,0.3 0.6,0.5 1,0.5 0.8,0 1.2,-0.5 1.2,-1.3 0,-0.5 -0.2,-1 -0.6,-1.4 -0.4,-0.4 -1.1,-0.7 -2,-0.7 z" class="st2" style="fill:#ffead7;fill-opacity:1"/><path id="path1154" d="m -502.8,670.1 c 0,-2.9 -2,-5 -5.2,-5 -3.2,0 -5.4,2.3 -5.4,5.6 0,3.5 2.3,5.7 5.8,5.7 1.7,0 3.4,-0.6 4.3,-1.9 0.2,-0.3 0.3,-0.6 0.3,-0.9 0,-0.6 -0.3,-1 -0.9,-1 -0.4,0 -0.7,0.2 -1.1,0.5 -0.6,0.8 -1.4,1.1 -2.5,1.1 -1.9,0 -3.3,-1.1 -3.4,-2.7 h 7 c 0.6,-0.1 1.1,-0.5 1.1,-1.4 z m -8.3,-0.6 c 0.2,-1.6 1.3,-2.5 2.9,-2.5 1.7,0 2.8,0.9 2.9,2.5 z" class="st2" style="fill:#ffead7;fill-opacity:1"/><path id="path1156" d="m -492.7,669.8 3,-2.6 c 0.5,-0.4 0.6,-0.8 0.6,-1.1 0,-0.6 -0.5,-1 -1.1,-1 -0.4,0 -0.8,0.1 -1.4,0.7 l -5.2,4.5 V 663 c 0,-0.7 -0.5,-1.2 -1.2,-1.2 -0.7,0 -1.2,0.5 -1.2,1.2 v 12 c 0,0.7 0.5,1.2 1.2,1.2 0.7,0 1.2,-0.5 1.2,-1.2 v -1.8 l 2.1,-1.8 3.4,4.3 c 0.3,0.5 0.8,0.6 1.1,0.6 0.7,0 1.2,-0.5 1.2,-1 0,-0.3 0,-0.5 -0.5,-1.1 z" class="st2" style="fill:#ffead7;fill-opacity:1"/><path id="path1158" d="m -480.3,665 c -3.3,0 -5.7,2.3 -5.7,5.7 0,3.4 2.4,5.7 5.7,5.7 3.3,0 5.7,-2.3 5.7,-5.7 0,-3.4 -2.4,-5.7 -5.7,-5.7 z m 0,9.2 c -1.9,0 -3.3,-1.4 -3.3,-3.5 0,-2.1 1.4,-3.5 3.3,-3.5 1.9,0 3.3,1.4 3.3,3.5 0,2.1 -1.4,3.5 -3.3,3.5 z" class="st2" style="fill:#ffead7;fill-opacity:1"/><path id="path1160" d="m -463.5,665.7 c -0.4,-0.4 -1.1,-0.7 -2,-0.7 -1.2,0 -2.2,0.5 -2.8,1.4 v -0.1 c 0,-0.7 -0.5,-1.2 -1.2,-1.2 -0.7,0 -1.2,0.5 -1.2,1.2 v 8.7 c 0,0.7 0.5,1.2 1.2,1.2 0.7,0 1.2,-0.5 1.2,-1.2 v -4.7 c 0,-1.9 0.9,-3 2,-3 0.5,0 1,0.3 1.2,0.6 0.2,0.3 0.6,0.5 1,0.5 0.8,0 1.2,-0.5 1.2,-1.3 0,-0.5 -0.2,-1 -0.6,-1.4 z" class="st2" style="fill:#ffead7;fill-opacity:1"/><path id="path1162" d="m -537.6,677.3 h -13.3 c -0.4,0 -0.8,-0.3 -0.8,-0.8 v -11 c 0.2,0.1 0.5,0.1 0.8,0.1 h 13.3 c 0.5,0 0.8,-0.4 0.8,-0.8 0,-0.5 -0.4,-0.8 -0.8,-0.8 h -2.6 v -2.3 c 0,-0.5 -0.4,-0.8 -0.8,-0.8 h -9.9 c -1.3,0 -2.4,1.1 -2.4,2.4 v 13.4 c 0,1.3 1.1,2.4 2.4,2.4 h 13.3 c 0.5,0 0.8,-0.4 0.8,-0.8 0,-0.6 -0.4,-1 -0.8,-1 z m -13.3,-14.9 h 9.1 v 1.5 h -9.1 c -0.4,0 -0.8,-0.3 -0.8,-0.8 0,-0.3 0.4,-0.7 0.8,-0.7 z" class="st2" style="fill:#ffead7;fill-opacity:1"/><circle id="circle1164" cx="-538.2" cy="668.9" r="1.4" class="st2" style="fill:#ffead7;fill-opacity:1"/><circle id="circle1166" cx="-538.2" cy="673.7" r="1.4" class="st2" style="fill:#ffead7;fill-opacity:1"/></g></g><g id="Fulcio-3" class="st0" style="fill:#ffead7;fill-opacity:1"><g id="g1191" class="st3" style="fill:#ffead7;fill-opacity:1"><path id="path1171" d="m -517.3,663.7 c 0.5,0 0.8,0.1 1.1,0.3 0.2,0.1 0.3,0.1 0.5,0.1 0.5,0 0.9,-0.4 0.9,-0.9 0,-0.4 -0.2,-0.7 -0.5,-0.9 -0.5,-0.4 -1.3,-0.6 -2.2,-0.6 -2.2,0 -3.5,1.3 -3.5,3.3 v 0.3 h -1.5 c -0.7,0 -1.1,0.4 -1.1,1.1 0,0.6 0.5,1.1 1.1,1.1 h 1.5 v 7.6 c 0,0.7 0.5,1.2 1.2,1.2 0.7,0 1.2,-0.5 1.2,-1.2 v -7.6 h 2.5 c 0.7,0 1.1,-0.4 1.1,-1.1 0,-0.6 -0.5,-1.1 -1.1,-1.1 h -2.5 v -0.2 c -0.1,-0.9 0.3,-1.4 1.3,-1.4 z" class="st2" style="fill:#ffead7;fill-opacity:1"/><path id="path1173" d="m -502.7,665.1 c -0.7,0 -1.2,0.5 -1.2,1.2 v 4.8 c 0,1.8 -1.1,3 -2.8,3 -1.6,0 -2.5,-0.9 -2.5,-2.8 v -5 c 0,-0.7 -0.5,-1.2 -1.2,-1.2 -0.7,0 -1.2,0.5 -1.2,1.2 v 5.4 c 0,2.9 1.7,4.6 4.4,4.6 1.5,0 2.7,-0.5 3.3,-1.5 v 0.2 c 0,0.7 0.5,1.2 1.2,1.2 0.7,0 1.2,-0.5 1.2,-1.2 v -8.7 c 0,-0.7 -0.5,-1.2 -1.2,-1.2 z" class="st2" style="fill:#ffead7;fill-opacity:1"/><path id="path1175" d="m -495.5,661.8 c -0.7,0 -1.2,0.5 -1.2,1.2 v 12 c 0,0.7 0.5,1.2 1.2,1.2 0.7,0 1.2,-0.5 1.2,-1.2 v -12 c 0,-0.7 -0.5,-1.2 -1.2,-1.2 z" class="st2" style="fill:#ffead7;fill-opacity:1"/><path id="path1177" d="m -481.1,672 c -0.5,0 -0.8,0.2 -1.1,0.7 -0.5,0.8 -1.3,1.5 -2.6,1.5 -1.9,0 -3.2,-1.4 -3.2,-3.5 0,-2.1 1.3,-3.5 3.2,-3.5 1.1,0 2,0.6 2.5,1.4 0.4,0.5 0.7,0.7 1.2,0.7 0.6,0 1,-0.4 1,-1 0,-0.5 -0.4,-1.3 -0.9,-1.9 -0.8,-0.8 -2.1,-1.4 -3.9,-1.4 -3.2,0 -5.6,2.4 -5.6,5.7 0,3.3 2.4,5.7 5.6,5.7 1.7,0 3.1,-0.6 3.9,-1.5 0.5,-0.6 0.9,-1.3 0.9,-1.8 0.1,-0.7 -0.4,-1.1 -1,-1.1 z" class="st2" style="fill:#ffead7;fill-opacity:1"/><path id="path1179" d="m -475.1,665.1 c -0.7,0 -1.2,0.5 -1.2,1.2 v 8.7 c 0,0.7 0.5,1.2 1.2,1.2 0.7,0 1.2,-0.5 1.2,-1.2 v -8.7 c 0,-0.7 -0.5,-1.2 -1.2,-1.2 z" class="st2" style="fill:#ffead7;fill-opacity:1"/><path id="path1181" d="m -475.1,660.8 c -0.9,0 -1.5,0.6 -1.5,1.5 0,0.8 0.6,1.5 1.5,1.5 0.9,0 1.5,-0.6 1.5,-1.5 0,-0.8 -0.6,-1.5 -1.5,-1.5 z" class="st2" style="fill:#ffead7;fill-opacity:1"/><path id="path1183" d="m -464.4,665 c -3.3,0 -5.7,2.3 -5.7,5.7 0,3.4 2.4,5.7 5.7,5.7 3.3,0 5.7,-2.3 5.7,-5.7 0,-3.4 -2.3,-5.7 -5.7,-5.7 z m 0,9.1 c -1.9,0 -3.3,-1.4 -3.3,-3.5 0,-2.1 1.4,-3.5 3.3,-3.5 1.9,0 3.3,1.4 3.3,3.5 0,2.1 -1.4,3.5 -3.3,3.5 z" class="st2" style="fill:#ffead7;fill-opacity:1"/><path id="path1185" d="m -550.6,675.6 c -0.2,0 -0.4,0.1 -0.6,0.2 v 0 c -1.3,1 -2,1.4 -2.1,1.4 -0.4,0.3 -0.6,0.8 -0.4,1.3 0,0.1 0,0.1 0.1,0.2 0.1,0.3 0.4,0.4 0.6,0.5 0.1,0 0.2,0 0.2,0 0.2,0 0.4,0 0.5,-0.1 0.1,-0.1 0.8,-0.4 2.1,-1.4 0.3,-0.2 0.5,-0.5 0.5,-0.9 0.1,-0.7 -0.3,-1.2 -0.9,-1.2 z" class="st2" style="fill:#ffead7;fill-opacity:1"/><path id="path1187" d="m -541.4,671.5 c -0.4,0 -0.8,0.3 -0.8,0.7 l -0.1,0.4 c -0.3,0.7 -0.9,1.6 -2.1,2.2 -0.3,0.1 -0.6,0.3 -0.9,0.4 -0.5,-0.1 -0.9,-0.3 -1.2,-0.5 -0.7,-0.4 -1.2,-1 -1.5,-1.5 -0.5,-0.7 -0.6,-1.4 -0.6,-1.4 v -0.1 -0.2 -3.1 h 3.2 v 0 0 c 0.5,0 0.8,-0.4 0.8,-0.8 0,-0.4 -0.4,-0.8 -0.8,-0.8 v 0 h -3.4 c -0.8,0 -1.5,0.7 -1.5,1.5 v 3.5 c 0,0 0,0.1 0,0.2 0,0.2 0.1,0.5 0.2,0.9 0.2,0.5 0.4,1 0.8,1.5 0.4,0.5 0.8,1 1.5,1.5 0.4,0.3 1,0.6 1.6,0.8 0.2,0.1 0.5,0.2 0.7,0.2 0.1,0 0.1,0 0.2,0 h 0.1 c 0.1,0 0.1,0 0.2,0 v 0 c 2.8,-0.7 4.1,-2.8 4.5,-4.1 v 0 c 0.1,-0.1 0.1,-0.2 0.1,-0.4 -0.2,-0.5 -0.6,-0.9 -1,-0.9 z" class="st2" style="fill:#ffead7;fill-opacity:1"/><path id="path1189" d="m -539,661.7 c -0.1,-0.2 -0.3,-0.3 -0.5,-0.4 -0.2,-0.1 -0.4,0 -0.6,0.1 l -3.4,1.9 c -0.4,0.2 -0.5,0.7 -0.3,1.1 0.2,0.4 0.7,0.5 1.1,0.3 l 1.4,-0.8 c -0.1,0.3 -0.2,0.5 -0.5,1.1 -0.3,0.6 -0.6,1.1 -0.9,1.6 -0.2,0.3 -0.3,0.6 -0.5,0.8 -0.2,0.3 -0.4,0.6 -0.6,0.8 -0.4,0.6 -0.8,1.1 -1.3,1.6 -0.6,0.7 -1,1.2 -1.6,1.8 v 0 0 c -0.2,0.2 -0.3,0.4 -0.3,0.7 0,0.6 0.5,1 1,1 0.3,0 0.5,-0.1 0.7,-0.3 0,0 0,0 0.1,0 v 0 c 0.5,-0.5 1,-1 1.5,-1.6 0.6,-0.7 1.1,-1.4 1.7,-2.2 0.3,-0.4 0.6,-0.8 0.8,-1.2 0.2,-0.3 0.4,-0.6 0.5,-0.9 0.3,-0.5 0.5,-1 0.8,-1.5 0.3,-0.6 0.4,-0.9 0.5,-1.2 l 0.7,1.3 c 0.2,0.3 0.4,0.4 0.7,0.4 0.1,0 0.3,0 0.4,-0.1 0.4,-0.2 0.5,-0.7 0.3,-1.1 z" class="st2" style="fill:#ffead7;fill-opacity:1"/></g></g></g></svg>